<mxfile host="app.diagrams.net" agent="Mozilla/5.0 (Macintosh; Intel Mac OS X 10_15_7) AppleWebKit/537.36 (KHTML, like Gecko) Chrome/126.0.0.0 Safari/537.36" version="24.7.5">
  <diagram name="Page-1" id="mviqMraaSweR53nrHlW_">
    <mxGraphModel dx="1440" dy="2121" grid="1" gridSize="10" guides="1" tooltips="1" connect="1" arrows="1" fold="1" page="1" pageScale="1" pageWidth="827" pageHeight="1169" math="0" shadow="0">
      <root>
        <mxCell id="0" />
        <mxCell id="1" parent="0" />
        <mxCell id="QnFMCh0aSAJ70zb8AmW7-10" style="edgeStyle=orthogonalEdgeStyle;rounded=0;orthogonalLoop=1;jettySize=auto;html=1;" edge="1" parent="1" source="QnFMCh0aSAJ70zb8AmW7-1" target="QnFMCh0aSAJ70zb8AmW7-11">
          <mxGeometry relative="1" as="geometry">
            <mxPoint x="600" y="300" as="targetPoint" />
          </mxGeometry>
        </mxCell>
        <mxCell id="QnFMCh0aSAJ70zb8AmW7-55" value="" style="edgeStyle=orthogonalEdgeStyle;rounded=0;orthogonalLoop=1;jettySize=auto;html=1;" edge="1" parent="1" source="QnFMCh0aSAJ70zb8AmW7-1">
          <mxGeometry relative="1" as="geometry">
            <mxPoint x="600" y="68" as="targetPoint" />
          </mxGeometry>
        </mxCell>
        <mxCell id="QnFMCh0aSAJ70zb8AmW7-1" value="Camera System" style="rounded=0;whiteSpace=wrap;html=1;" vertex="1" parent="1">
          <mxGeometry x="540" y="148" width="120" height="60" as="geometry" />
        </mxCell>
        <mxCell id="QnFMCh0aSAJ70zb8AmW7-4" style="edgeStyle=orthogonalEdgeStyle;rounded=0;orthogonalLoop=1;jettySize=auto;html=1;entryX=0;entryY=0.5;entryDx=0;entryDy=0;" edge="1" parent="1" source="QnFMCh0aSAJ70zb8AmW7-3" target="QnFMCh0aSAJ70zb8AmW7-1">
          <mxGeometry relative="1" as="geometry" />
        </mxCell>
        <mxCell id="QnFMCh0aSAJ70zb8AmW7-3" value="Clients 1" style="rounded=0;whiteSpace=wrap;html=1;" vertex="1" parent="1">
          <mxGeometry x="90" y="150" width="120" height="60" as="geometry" />
        </mxCell>
        <mxCell id="QnFMCh0aSAJ70zb8AmW7-5" value="1. Initiate the capture request" style="text;html=1;align=center;verticalAlign=middle;resizable=0;points=[];autosize=1;strokeColor=none;fillColor=none;" vertex="1" parent="1">
          <mxGeometry x="280" y="150" width="180" height="30" as="geometry" />
        </mxCell>
        <mxCell id="QnFMCh0aSAJ70zb8AmW7-6" value="" style="html=1;verticalLabelPosition=bottom;align=center;labelBackgroundColor=#ffffff;verticalAlign=top;strokeWidth=2;strokeColor=#0080F0;shadow=0;dashed=0;shape=mxgraph.ios7.icons.stopwatch;" vertex="1" parent="1">
          <mxGeometry x="220" y="190" width="27" height="28.2" as="geometry" />
        </mxCell>
        <mxCell id="QnFMCh0aSAJ70zb8AmW7-7" value="w. Client wait for request to be processed" style="text;html=1;align=center;verticalAlign=middle;resizable=0;points=[];autosize=1;strokeColor=none;fillColor=none;" vertex="1" parent="1">
          <mxGeometry x="240" y="190" width="240" height="30" as="geometry" />
        </mxCell>
        <mxCell id="QnFMCh0aSAJ70zb8AmW7-8" style="edgeStyle=orthogonalEdgeStyle;rounded=0;orthogonalLoop=1;jettySize=auto;html=1;entryX=0.7;entryY=1.067;entryDx=0;entryDy=0;entryPerimeter=0;" edge="1" parent="1" source="QnFMCh0aSAJ70zb8AmW7-1" target="QnFMCh0aSAJ70zb8AmW7-3">
          <mxGeometry relative="1" as="geometry">
            <Array as="points">
              <mxPoint x="530" y="178" />
              <mxPoint x="530" y="250" />
              <mxPoint x="174" y="250" />
            </Array>
          </mxGeometry>
        </mxCell>
        <mxCell id="QnFMCh0aSAJ70zb8AmW7-9" value="9. Response (Success/Failure) returned to clients" style="text;html=1;align=center;verticalAlign=middle;resizable=0;points=[];autosize=1;strokeColor=none;fillColor=none;" vertex="1" parent="1">
          <mxGeometry x="230" y="250" width="290" height="30" as="geometry" />
        </mxCell>
        <mxCell id="QnFMCh0aSAJ70zb8AmW7-15" value="" style="edgeStyle=orthogonalEdgeStyle;rounded=0;orthogonalLoop=1;jettySize=auto;html=1;" edge="1" parent="1" source="QnFMCh0aSAJ70zb8AmW7-11" target="QnFMCh0aSAJ70zb8AmW7-14">
          <mxGeometry relative="1" as="geometry" />
        </mxCell>
        <mxCell id="QnFMCh0aSAJ70zb8AmW7-11" value="request queue" style="rounded=0;whiteSpace=wrap;html=1;" vertex="1" parent="1">
          <mxGeometry x="810" y="140" width="120" height="60" as="geometry" />
        </mxCell>
        <mxCell id="QnFMCh0aSAJ70zb8AmW7-66" value="" style="edgeStyle=orthogonalEdgeStyle;rounded=0;orthogonalLoop=1;jettySize=auto;html=1;" edge="1" parent="1" source="QnFMCh0aSAJ70zb8AmW7-14" target="QnFMCh0aSAJ70zb8AmW7-49">
          <mxGeometry relative="1" as="geometry" />
        </mxCell>
        <mxCell id="QnFMCh0aSAJ70zb8AmW7-67" value="" style="edgeStyle=orthogonalEdgeStyle;rounded=0;orthogonalLoop=1;jettySize=auto;html=1;" edge="1" parent="1" source="QnFMCh0aSAJ70zb8AmW7-14" target="QnFMCh0aSAJ70zb8AmW7-49">
          <mxGeometry relative="1" as="geometry" />
        </mxCell>
        <mxCell id="QnFMCh0aSAJ70zb8AmW7-69" style="edgeStyle=orthogonalEdgeStyle;rounded=0;orthogonalLoop=1;jettySize=auto;html=1;" edge="1" parent="1" source="QnFMCh0aSAJ70zb8AmW7-14" target="QnFMCh0aSAJ70zb8AmW7-68">
          <mxGeometry relative="1" as="geometry">
            <Array as="points">
              <mxPoint x="1040" y="380" />
              <mxPoint x="1040" y="220" />
            </Array>
          </mxGeometry>
        </mxCell>
        <mxCell id="QnFMCh0aSAJ70zb8AmW7-74" style="edgeStyle=orthogonalEdgeStyle;rounded=0;orthogonalLoop=1;jettySize=auto;html=1;entryX=0;entryY=1;entryDx=0;entryDy=0;" edge="1" parent="1" source="QnFMCh0aSAJ70zb8AmW7-14" target="QnFMCh0aSAJ70zb8AmW7-36">
          <mxGeometry relative="1" as="geometry">
            <Array as="points">
              <mxPoint x="820" y="450" />
              <mxPoint x="1115" y="450" />
              <mxPoint x="1115" y="420" />
              <mxPoint x="1380" y="420" />
            </Array>
          </mxGeometry>
        </mxCell>
        <mxCell id="QnFMCh0aSAJ70zb8AmW7-14" value="Request Processor&lt;div&gt;(Async processes)&lt;/div&gt;" style="whiteSpace=wrap;html=1;rounded=0;" vertex="1" parent="1">
          <mxGeometry x="730" y="330" width="120" height="60" as="geometry" />
        </mxCell>
        <mxCell id="QnFMCh0aSAJ70zb8AmW7-21" value="&lt;b&gt;High Level Design&lt;/b&gt;" style="text;html=1;align=center;verticalAlign=middle;resizable=0;points=[];autosize=1;strokeColor=none;fillColor=none;" vertex="1" parent="1">
          <mxGeometry x="65" y="-120" width="130" height="30" as="geometry" />
        </mxCell>
        <mxCell id="QnFMCh0aSAJ70zb8AmW7-26" style="edgeStyle=orthogonalEdgeStyle;rounded=0;orthogonalLoop=1;jettySize=auto;html=1;" edge="1" parent="1" source="QnFMCh0aSAJ70zb8AmW7-22">
          <mxGeometry relative="1" as="geometry">
            <mxPoint x="530" y="180" as="targetPoint" />
          </mxGeometry>
        </mxCell>
        <mxCell id="QnFMCh0aSAJ70zb8AmW7-22" value="Clients 2" style="rounded=0;whiteSpace=wrap;html=1;" vertex="1" parent="1">
          <mxGeometry x="90" y="310" width="120" height="60" as="geometry" />
        </mxCell>
        <mxCell id="QnFMCh0aSAJ70zb8AmW7-23" value="1. Initiate the capture request" style="text;html=1;align=center;verticalAlign=middle;resizable=0;points=[];autosize=1;strokeColor=none;fillColor=none;" vertex="1" parent="1">
          <mxGeometry x="280" y="310" width="180" height="30" as="geometry" />
        </mxCell>
        <mxCell id="QnFMCh0aSAJ70zb8AmW7-24" value="" style="html=1;verticalLabelPosition=bottom;align=center;labelBackgroundColor=#ffffff;verticalAlign=top;strokeWidth=2;strokeColor=#0080F0;shadow=0;dashed=0;shape=mxgraph.ios7.icons.stopwatch;" vertex="1" parent="1">
          <mxGeometry x="220" y="350" width="27" height="28.2" as="geometry" />
        </mxCell>
        <mxCell id="QnFMCh0aSAJ70zb8AmW7-25" value="w. Client wait for request to be processed" style="text;html=1;align=center;verticalAlign=middle;resizable=0;points=[];autosize=1;strokeColor=none;fillColor=none;" vertex="1" parent="1">
          <mxGeometry x="240" y="350" width="240" height="30" as="geometry" />
        </mxCell>
        <mxCell id="QnFMCh0aSAJ70zb8AmW7-27" value="9. Response (Success/Failure) returned to clients" style="text;html=1;align=center;verticalAlign=middle;resizable=0;points=[];autosize=1;strokeColor=none;fillColor=none;" vertex="1" parent="1">
          <mxGeometry x="230" y="420" width="290" height="30" as="geometry" />
        </mxCell>
        <mxCell id="QnFMCh0aSAJ70zb8AmW7-28" style="edgeStyle=orthogonalEdgeStyle;rounded=0;orthogonalLoop=1;jettySize=auto;html=1;entryX=0.575;entryY=1.05;entryDx=0;entryDy=0;entryPerimeter=0;exitX=0.017;exitY=0.633;exitDx=0;exitDy=0;exitPerimeter=0;" edge="1" parent="1" source="QnFMCh0aSAJ70zb8AmW7-1" target="QnFMCh0aSAJ70zb8AmW7-22">
          <mxGeometry relative="1" as="geometry">
            <Array as="points">
              <mxPoint x="542" y="230" />
              <mxPoint x="530" y="230" />
              <mxPoint x="530" y="400" />
              <mxPoint x="159" y="400" />
            </Array>
          </mxGeometry>
        </mxCell>
        <mxCell id="QnFMCh0aSAJ70zb8AmW7-34" value="2b. Add request queue" style="text;html=1;align=center;verticalAlign=middle;resizable=0;points=[];autosize=1;strokeColor=none;fillColor=none;" vertex="1" parent="1">
          <mxGeometry x="670" y="180" width="140" height="30" as="geometry" />
        </mxCell>
        <mxCell id="QnFMCh0aSAJ70zb8AmW7-35" value="3. Process the request based on the priority&amp;nbsp;" style="text;html=1;align=center;verticalAlign=middle;resizable=0;points=[];autosize=1;strokeColor=none;fillColor=none;" vertex="1" parent="1">
          <mxGeometry x="790" y="260" width="260" height="30" as="geometry" />
        </mxCell>
        <mxCell id="QnFMCh0aSAJ70zb8AmW7-39" value="" style="edgeStyle=orthogonalEdgeStyle;rounded=0;orthogonalLoop=1;jettySize=auto;html=1;" edge="1" parent="1" source="QnFMCh0aSAJ70zb8AmW7-36" target="QnFMCh0aSAJ70zb8AmW7-38">
          <mxGeometry relative="1" as="geometry" />
        </mxCell>
        <mxCell id="QnFMCh0aSAJ70zb8AmW7-50" style="edgeStyle=orthogonalEdgeStyle;rounded=0;orthogonalLoop=1;jettySize=auto;html=1;entryX=1;entryY=0.5;entryDx=0;entryDy=0;" edge="1" parent="1" source="QnFMCh0aSAJ70zb8AmW7-36" target="QnFMCh0aSAJ70zb8AmW7-49">
          <mxGeometry relative="1" as="geometry">
            <Array as="points">
              <mxPoint x="1130" y="510" />
            </Array>
          </mxGeometry>
        </mxCell>
        <mxCell id="QnFMCh0aSAJ70zb8AmW7-36" value="Image Capture Module" style="whiteSpace=wrap;html=1;rounded=0;" vertex="1" parent="1">
          <mxGeometry x="1380" y="324.97" width="120" height="60" as="geometry" />
        </mxCell>
        <mxCell id="QnFMCh0aSAJ70zb8AmW7-43" style="edgeStyle=orthogonalEdgeStyle;rounded=0;orthogonalLoop=1;jettySize=auto;html=1;entryX=0.5;entryY=1;entryDx=0;entryDy=0;" edge="1" parent="1" source="QnFMCh0aSAJ70zb8AmW7-38" target="QnFMCh0aSAJ70zb8AmW7-36">
          <mxGeometry relative="1" as="geometry">
            <Array as="points">
              <mxPoint x="1810" y="414.97" />
              <mxPoint x="1440" y="414.97" />
            </Array>
          </mxGeometry>
        </mxCell>
        <mxCell id="QnFMCh0aSAJ70zb8AmW7-38" value="Camera (Hardware)" style="rhombus;whiteSpace=wrap;html=1;rounded=0;" vertex="1" parent="1">
          <mxGeometry x="1770" y="314.97" width="80" height="80" as="geometry" />
        </mxCell>
        <mxCell id="QnFMCh0aSAJ70zb8AmW7-42" value="5. Image Capture module capture image&lt;div&gt;&amp;nbsp;by interacting with the camera&lt;/div&gt;" style="text;html=1;align=center;verticalAlign=middle;resizable=0;points=[];autosize=1;strokeColor=none;fillColor=none;" vertex="1" parent="1">
          <mxGeometry x="1511" y="314.97" width="240" height="40" as="geometry" />
        </mxCell>
        <mxCell id="QnFMCh0aSAJ70zb8AmW7-44" value="6. Return the image captured" style="text;html=1;align=center;verticalAlign=middle;resizable=0;points=[];autosize=1;strokeColor=none;fillColor=none;" vertex="1" parent="1">
          <mxGeometry x="1530" y="382.97" width="180" height="30" as="geometry" />
        </mxCell>
        <mxCell id="QnFMCh0aSAJ70zb8AmW7-52" style="edgeStyle=orthogonalEdgeStyle;rounded=0;orthogonalLoop=1;jettySize=auto;html=1;entryX=0.5;entryY=1;entryDx=0;entryDy=0;" edge="1" parent="1" source="QnFMCh0aSAJ70zb8AmW7-49" target="QnFMCh0aSAJ70zb8AmW7-1">
          <mxGeometry relative="1" as="geometry" />
        </mxCell>
        <mxCell id="QnFMCh0aSAJ70zb8AmW7-49" value="Response Manager" style="whiteSpace=wrap;html=1;" vertex="1" parent="1">
          <mxGeometry x="730" y="490" width="120" height="60" as="geometry" />
        </mxCell>
        <mxCell id="QnFMCh0aSAJ70zb8AmW7-51" value="7. Return the captured image or failure" style="text;html=1;align=center;verticalAlign=middle;resizable=0;points=[];autosize=1;strokeColor=none;fillColor=none;" vertex="1" parent="1">
          <mxGeometry x="880" y="510" width="230" height="30" as="geometry" />
        </mxCell>
        <mxCell id="QnFMCh0aSAJ70zb8AmW7-53" value="8. return the client with response&lt;div&gt;&amp;nbsp;as present in the in-memory store&amp;nbsp;&lt;/div&gt;" style="text;html=1;align=center;verticalAlign=middle;resizable=0;points=[];autosize=1;strokeColor=none;fillColor=none;" vertex="1" parent="1">
          <mxGeometry x="510" y="510" width="210" height="40" as="geometry" />
        </mxCell>
        <mxCell id="QnFMCh0aSAJ70zb8AmW7-56" value="In-Memory data store&amp;nbsp;" style="shape=cylinder3;whiteSpace=wrap;html=1;boundedLbl=1;backgroundOutline=1;size=15;" vertex="1" parent="1">
          <mxGeometry x="570" y="-12" width="60" height="80" as="geometry" />
        </mxCell>
        <mxCell id="QnFMCh0aSAJ70zb8AmW7-57" value="In-Memory Data Store" style="swimlane;whiteSpace=wrap;html=1;startSize=23;" vertex="1" parent="1">
          <mxGeometry x="640" y="-80" width="200" height="130" as="geometry" />
        </mxCell>
        <mxCell id="QnFMCh0aSAJ70zb8AmW7-58" value="1. Keep the track of request ID" style="text;html=1;align=center;verticalAlign=middle;resizable=0;points=[];autosize=1;strokeColor=none;fillColor=none;" vertex="1" parent="QnFMCh0aSAJ70zb8AmW7-57">
          <mxGeometry y="28" width="190" height="30" as="geometry" />
        </mxCell>
        <mxCell id="QnFMCh0aSAJ70zb8AmW7-59" value="2. Client Information&amp;nbsp;" style="text;html=1;align=center;verticalAlign=middle;resizable=0;points=[];autosize=1;strokeColor=none;fillColor=none;" vertex="1" parent="QnFMCh0aSAJ70zb8AmW7-57">
          <mxGeometry y="58" width="130" height="30" as="geometry" />
        </mxCell>
        <mxCell id="QnFMCh0aSAJ70zb8AmW7-60" value="3. response channel" style="text;html=1;align=center;verticalAlign=middle;resizable=0;points=[];autosize=1;strokeColor=none;fillColor=none;" vertex="1" parent="QnFMCh0aSAJ70zb8AmW7-57">
          <mxGeometry y="85" width="130" height="30" as="geometry" />
        </mxCell>
        <mxCell id="QnFMCh0aSAJ70zb8AmW7-61" value="Client Request" style="swimlane;fontStyle=0;childLayout=stackLayout;horizontal=1;startSize=30;horizontalStack=0;resizeParent=1;resizeParentMax=0;resizeLast=0;collapsible=1;marginBottom=0;whiteSpace=wrap;html=1;" vertex="1" parent="1">
          <mxGeometry x="40" y="50" width="140" height="90" as="geometry" />
        </mxCell>
        <mxCell id="QnFMCh0aSAJ70zb8AmW7-62" value="Priority&amp;nbsp;" style="text;strokeColor=none;fillColor=none;align=left;verticalAlign=middle;spacingLeft=4;spacingRight=4;overflow=hidden;points=[[0,0.5],[1,0.5]];portConstraint=eastwest;rotatable=0;whiteSpace=wrap;html=1;" vertex="1" parent="QnFMCh0aSAJ70zb8AmW7-61">
          <mxGeometry y="30" width="140" height="30" as="geometry" />
        </mxCell>
        <mxCell id="QnFMCh0aSAJ70zb8AmW7-63" value="request headers" style="text;strokeColor=none;fillColor=none;align=left;verticalAlign=middle;spacingLeft=4;spacingRight=4;overflow=hidden;points=[[0,0.5],[1,0.5]];portConstraint=eastwest;rotatable=0;whiteSpace=wrap;html=1;" vertex="1" parent="QnFMCh0aSAJ70zb8AmW7-61">
          <mxGeometry y="60" width="140" height="30" as="geometry" />
        </mxCell>
        <mxCell id="QnFMCh0aSAJ70zb8AmW7-65" value="2a. Camera system stores&lt;div&gt;&amp;nbsp;the client related information&lt;/div&gt;&lt;div&gt;&amp;nbsp;in in-memory datastore&lt;/div&gt;" style="text;html=1;align=center;verticalAlign=middle;resizable=0;points=[];autosize=1;strokeColor=none;fillColor=none;" vertex="1" parent="1">
          <mxGeometry x="590" y="80" width="180" height="60" as="geometry" />
        </mxCell>
        <mxCell id="QnFMCh0aSAJ70zb8AmW7-75" style="edgeStyle=orthogonalEdgeStyle;rounded=0;orthogonalLoop=1;jettySize=auto;html=1;entryX=0.5;entryY=0;entryDx=0;entryDy=0;" edge="1" parent="1" source="QnFMCh0aSAJ70zb8AmW7-68" target="QnFMCh0aSAJ70zb8AmW7-36">
          <mxGeometry relative="1" as="geometry" />
        </mxCell>
        <mxCell id="QnFMCh0aSAJ70zb8AmW7-68" value="Sync Mechanism" style="whiteSpace=wrap;html=1;" vertex="1" parent="1">
          <mxGeometry x="1100" y="200" width="120" height="60" as="geometry" />
        </mxCell>
        <mxCell id="QnFMCh0aSAJ70zb8AmW7-70" value="4a. Request for lock&amp;nbsp;" style="text;html=1;align=center;verticalAlign=middle;resizable=0;points=[];autosize=1;strokeColor=none;fillColor=none;" vertex="1" parent="1">
          <mxGeometry x="840" y="348.2" width="130" height="30" as="geometry" />
        </mxCell>
        <mxCell id="QnFMCh0aSAJ70zb8AmW7-71" style="edgeStyle=orthogonalEdgeStyle;rounded=0;orthogonalLoop=1;jettySize=auto;html=1;entryX=0.063;entryY=1.027;entryDx=0;entryDy=0;entryPerimeter=0;" edge="1" parent="1" source="QnFMCh0aSAJ70zb8AmW7-68" target="QnFMCh0aSAJ70zb8AmW7-70">
          <mxGeometry relative="1" as="geometry">
            <Array as="points">
              <mxPoint x="1150" y="398" />
              <mxPoint x="848" y="398" />
            </Array>
          </mxGeometry>
        </mxCell>
        <mxCell id="QnFMCh0aSAJ70zb8AmW7-72" value="4c. Provide lock based on priority" style="text;html=1;align=center;verticalAlign=middle;resizable=0;points=[];autosize=1;strokeColor=none;fillColor=none;" vertex="1" parent="1">
          <mxGeometry x="1150" y="339.96999999999997" width="200" height="30" as="geometry" />
        </mxCell>
        <mxCell id="QnFMCh0aSAJ70zb8AmW7-40" value="4c. once acquired lock, request is send to image&amp;nbsp;&lt;div&gt;capture module to capture image&lt;/div&gt;" style="text;html=1;align=center;verticalAlign=middle;resizable=0;points=[];autosize=1;strokeColor=none;fillColor=none;" vertex="1" parent="1">
          <mxGeometry x="1120" y="430" width="280" height="40" as="geometry" />
        </mxCell>
        <mxCell id="QnFMCh0aSAJ70zb8AmW7-76" value="4b. check for hardware availabiliity" style="text;html=1;align=center;verticalAlign=middle;resizable=0;points=[];autosize=1;strokeColor=none;fillColor=none;" vertex="1" parent="1">
          <mxGeometry x="1220" y="200" width="210" height="30" as="geometry" />
        </mxCell>
        <mxCell id="QnFMCh0aSAJ70zb8AmW7-77" value="&lt;b&gt;Low Level Design&lt;/b&gt;" style="text;html=1;align=center;verticalAlign=middle;resizable=0;points=[];autosize=1;strokeColor=none;fillColor=none;" vertex="1" parent="1">
          <mxGeometry x="75" y="668" width="120" height="30" as="geometry" />
        </mxCell>
        <mxCell id="QnFMCh0aSAJ70zb8AmW7-78" style="edgeStyle=orthogonalEdgeStyle;rounded=0;orthogonalLoop=1;jettySize=auto;html=1;" edge="1" source="QnFMCh0aSAJ70zb8AmW7-80" target="QnFMCh0aSAJ70zb8AmW7-89" parent="1">
          <mxGeometry relative="1" as="geometry">
            <mxPoint x="610" y="1170" as="targetPoint" />
          </mxGeometry>
        </mxCell>
        <mxCell id="QnFMCh0aSAJ70zb8AmW7-79" value="" style="edgeStyle=orthogonalEdgeStyle;rounded=0;orthogonalLoop=1;jettySize=auto;html=1;" edge="1" source="QnFMCh0aSAJ70zb8AmW7-80" parent="1">
          <mxGeometry relative="1" as="geometry">
            <mxPoint x="610" y="938" as="targetPoint" />
          </mxGeometry>
        </mxCell>
        <mxCell id="QnFMCh0aSAJ70zb8AmW7-80" value="Camera System" style="rounded=0;whiteSpace=wrap;html=1;" vertex="1" parent="1">
          <mxGeometry x="550" y="1018" width="120" height="60" as="geometry" />
        </mxCell>
        <mxCell id="QnFMCh0aSAJ70zb8AmW7-81" style="edgeStyle=orthogonalEdgeStyle;rounded=0;orthogonalLoop=1;jettySize=auto;html=1;entryX=0;entryY=0.5;entryDx=0;entryDy=0;" edge="1" source="QnFMCh0aSAJ70zb8AmW7-82" target="QnFMCh0aSAJ70zb8AmW7-80" parent="1">
          <mxGeometry relative="1" as="geometry" />
        </mxCell>
        <mxCell id="QnFMCh0aSAJ70zb8AmW7-82" value="Clients 1" style="rounded=0;whiteSpace=wrap;html=1;" vertex="1" parent="1">
          <mxGeometry x="100" y="1020" width="120" height="60" as="geometry" />
        </mxCell>
        <mxCell id="QnFMCh0aSAJ70zb8AmW7-83" value="1. Initiate the capture request" style="text;html=1;align=center;verticalAlign=middle;resizable=0;points=[];autosize=1;strokeColor=none;fillColor=none;" vertex="1" parent="1">
          <mxGeometry x="290" y="1020" width="180" height="30" as="geometry" />
        </mxCell>
        <mxCell id="QnFMCh0aSAJ70zb8AmW7-84" value="" style="html=1;verticalLabelPosition=bottom;align=center;labelBackgroundColor=#ffffff;verticalAlign=top;strokeWidth=2;strokeColor=#0080F0;shadow=0;dashed=0;shape=mxgraph.ios7.icons.stopwatch;" vertex="1" parent="1">
          <mxGeometry x="230" y="1060" width="27" height="28.2" as="geometry" />
        </mxCell>
        <mxCell id="QnFMCh0aSAJ70zb8AmW7-85" value="w. Client wait for request to be processed" style="text;html=1;align=center;verticalAlign=middle;resizable=0;points=[];autosize=1;strokeColor=none;fillColor=none;" vertex="1" parent="1">
          <mxGeometry x="250" y="1060" width="240" height="30" as="geometry" />
        </mxCell>
        <mxCell id="QnFMCh0aSAJ70zb8AmW7-86" style="edgeStyle=orthogonalEdgeStyle;rounded=0;orthogonalLoop=1;jettySize=auto;html=1;entryX=0.7;entryY=1.067;entryDx=0;entryDy=0;entryPerimeter=0;" edge="1" source="QnFMCh0aSAJ70zb8AmW7-80" target="QnFMCh0aSAJ70zb8AmW7-82" parent="1">
          <mxGeometry relative="1" as="geometry">
            <Array as="points">
              <mxPoint x="540" y="1048" />
              <mxPoint x="540" y="1120" />
              <mxPoint x="184" y="1120" />
            </Array>
          </mxGeometry>
        </mxCell>
        <mxCell id="QnFMCh0aSAJ70zb8AmW7-87" value="9. Response (Success/Failure) returned to clients" style="text;html=1;align=center;verticalAlign=middle;resizable=0;points=[];autosize=1;strokeColor=none;fillColor=none;" vertex="1" parent="1">
          <mxGeometry x="240" y="1120" width="290" height="30" as="geometry" />
        </mxCell>
        <mxCell id="QnFMCh0aSAJ70zb8AmW7-88" value="" style="edgeStyle=orthogonalEdgeStyle;rounded=0;orthogonalLoop=1;jettySize=auto;html=1;" edge="1" source="QnFMCh0aSAJ70zb8AmW7-89" target="QnFMCh0aSAJ70zb8AmW7-94" parent="1">
          <mxGeometry relative="1" as="geometry" />
        </mxCell>
        <mxCell id="QnFMCh0aSAJ70zb8AmW7-89" value="request queue" style="rounded=0;whiteSpace=wrap;html=1;" vertex="1" parent="1">
          <mxGeometry x="820" y="1010" width="120" height="60" as="geometry" />
        </mxCell>
        <mxCell id="QnFMCh0aSAJ70zb8AmW7-90" value="" style="edgeStyle=orthogonalEdgeStyle;rounded=0;orthogonalLoop=1;jettySize=auto;html=1;" edge="1" source="QnFMCh0aSAJ70zb8AmW7-94" target="QnFMCh0aSAJ70zb8AmW7-113" parent="1">
          <mxGeometry relative="1" as="geometry" />
        </mxCell>
        <mxCell id="QnFMCh0aSAJ70zb8AmW7-91" value="" style="edgeStyle=orthogonalEdgeStyle;rounded=0;orthogonalLoop=1;jettySize=auto;html=1;" edge="1" source="QnFMCh0aSAJ70zb8AmW7-94" target="QnFMCh0aSAJ70zb8AmW7-113" parent="1">
          <mxGeometry relative="1" as="geometry" />
        </mxCell>
        <mxCell id="QnFMCh0aSAJ70zb8AmW7-92" style="edgeStyle=orthogonalEdgeStyle;rounded=0;orthogonalLoop=1;jettySize=auto;html=1;" edge="1" source="QnFMCh0aSAJ70zb8AmW7-94" target="QnFMCh0aSAJ70zb8AmW7-126" parent="1">
          <mxGeometry relative="1" as="geometry">
            <Array as="points">
              <mxPoint x="1050" y="1250" />
              <mxPoint x="1050" y="1090" />
            </Array>
          </mxGeometry>
        </mxCell>
        <mxCell id="QnFMCh0aSAJ70zb8AmW7-93" style="edgeStyle=orthogonalEdgeStyle;rounded=0;orthogonalLoop=1;jettySize=auto;html=1;entryX=0;entryY=1;entryDx=0;entryDy=0;" edge="1" source="QnFMCh0aSAJ70zb8AmW7-94" target="QnFMCh0aSAJ70zb8AmW7-107" parent="1">
          <mxGeometry relative="1" as="geometry">
            <Array as="points">
              <mxPoint x="830" y="1320" />
              <mxPoint x="1125" y="1320" />
              <mxPoint x="1125" y="1290" />
              <mxPoint x="1390" y="1290" />
            </Array>
          </mxGeometry>
        </mxCell>
        <mxCell id="QnFMCh0aSAJ70zb8AmW7-94" value="Request Processor&lt;div&gt;(Async processes)&lt;/div&gt;" style="whiteSpace=wrap;html=1;rounded=0;" vertex="1" parent="1">
          <mxGeometry x="740" y="1200" width="120" height="60" as="geometry" />
        </mxCell>
        <mxCell id="QnFMCh0aSAJ70zb8AmW7-96" style="edgeStyle=orthogonalEdgeStyle;rounded=0;orthogonalLoop=1;jettySize=auto;html=1;" edge="1" source="QnFMCh0aSAJ70zb8AmW7-97" parent="1">
          <mxGeometry relative="1" as="geometry">
            <mxPoint x="540" y="1050" as="targetPoint" />
          </mxGeometry>
        </mxCell>
        <mxCell id="QnFMCh0aSAJ70zb8AmW7-97" value="Clients 2" style="rounded=0;whiteSpace=wrap;html=1;" vertex="1" parent="1">
          <mxGeometry x="100" y="1180" width="120" height="60" as="geometry" />
        </mxCell>
        <mxCell id="QnFMCh0aSAJ70zb8AmW7-98" value="1. Initiate the capture request" style="text;html=1;align=center;verticalAlign=middle;resizable=0;points=[];autosize=1;strokeColor=none;fillColor=none;" vertex="1" parent="1">
          <mxGeometry x="290" y="1180" width="180" height="30" as="geometry" />
        </mxCell>
        <mxCell id="QnFMCh0aSAJ70zb8AmW7-99" value="" style="html=1;verticalLabelPosition=bottom;align=center;labelBackgroundColor=#ffffff;verticalAlign=top;strokeWidth=2;strokeColor=#0080F0;shadow=0;dashed=0;shape=mxgraph.ios7.icons.stopwatch;" vertex="1" parent="1">
          <mxGeometry x="230" y="1220" width="27" height="28.2" as="geometry" />
        </mxCell>
        <mxCell id="QnFMCh0aSAJ70zb8AmW7-100" value="w. Client wait for request to be processed" style="text;html=1;align=center;verticalAlign=middle;resizable=0;points=[];autosize=1;strokeColor=none;fillColor=none;" vertex="1" parent="1">
          <mxGeometry x="250" y="1220" width="240" height="30" as="geometry" />
        </mxCell>
        <mxCell id="QnFMCh0aSAJ70zb8AmW7-101" value="9. Response (Success/Failure) returned to clients" style="text;html=1;align=center;verticalAlign=middle;resizable=0;points=[];autosize=1;strokeColor=none;fillColor=none;" vertex="1" parent="1">
          <mxGeometry x="240" y="1290" width="290" height="30" as="geometry" />
        </mxCell>
        <mxCell id="QnFMCh0aSAJ70zb8AmW7-102" style="edgeStyle=orthogonalEdgeStyle;rounded=0;orthogonalLoop=1;jettySize=auto;html=1;entryX=0.575;entryY=1.05;entryDx=0;entryDy=0;entryPerimeter=0;exitX=0.017;exitY=0.633;exitDx=0;exitDy=0;exitPerimeter=0;" edge="1" source="QnFMCh0aSAJ70zb8AmW7-80" target="QnFMCh0aSAJ70zb8AmW7-97" parent="1">
          <mxGeometry relative="1" as="geometry">
            <Array as="points">
              <mxPoint x="552" y="1100" />
              <mxPoint x="540" y="1100" />
              <mxPoint x="540" y="1270" />
              <mxPoint x="169" y="1270" />
            </Array>
          </mxGeometry>
        </mxCell>
        <mxCell id="QnFMCh0aSAJ70zb8AmW7-103" value="2b. Add request queue" style="text;html=1;align=center;verticalAlign=middle;resizable=0;points=[];autosize=1;strokeColor=none;fillColor=none;" vertex="1" parent="1">
          <mxGeometry x="680" y="1050" width="140" height="30" as="geometry" />
        </mxCell>
        <mxCell id="QnFMCh0aSAJ70zb8AmW7-104" value="3. Process the request based on the priority&amp;nbsp;" style="text;html=1;align=center;verticalAlign=middle;resizable=0;points=[];autosize=1;strokeColor=none;fillColor=none;" vertex="1" parent="1">
          <mxGeometry x="800" y="1130" width="260" height="30" as="geometry" />
        </mxCell>
        <mxCell id="QnFMCh0aSAJ70zb8AmW7-105" value="" style="edgeStyle=orthogonalEdgeStyle;rounded=0;orthogonalLoop=1;jettySize=auto;html=1;" edge="1" source="QnFMCh0aSAJ70zb8AmW7-107" target="QnFMCh0aSAJ70zb8AmW7-109" parent="1">
          <mxGeometry relative="1" as="geometry" />
        </mxCell>
        <mxCell id="QnFMCh0aSAJ70zb8AmW7-106" style="edgeStyle=orthogonalEdgeStyle;rounded=0;orthogonalLoop=1;jettySize=auto;html=1;entryX=1;entryY=0.5;entryDx=0;entryDy=0;" edge="1" source="QnFMCh0aSAJ70zb8AmW7-107" target="QnFMCh0aSAJ70zb8AmW7-113" parent="1">
          <mxGeometry relative="1" as="geometry">
            <Array as="points">
              <mxPoint x="1140" y="1380" />
            </Array>
          </mxGeometry>
        </mxCell>
        <mxCell id="QnFMCh0aSAJ70zb8AmW7-107" value="Image Capture Module" style="whiteSpace=wrap;html=1;rounded=0;" vertex="1" parent="1">
          <mxGeometry x="1390" y="1194.97" width="120" height="60" as="geometry" />
        </mxCell>
        <mxCell id="QnFMCh0aSAJ70zb8AmW7-108" style="edgeStyle=orthogonalEdgeStyle;rounded=0;orthogonalLoop=1;jettySize=auto;html=1;entryX=0.5;entryY=1;entryDx=0;entryDy=0;" edge="1" source="QnFMCh0aSAJ70zb8AmW7-109" target="QnFMCh0aSAJ70zb8AmW7-107" parent="1">
          <mxGeometry relative="1" as="geometry">
            <Array as="points">
              <mxPoint x="1820" y="1284.97" />
              <mxPoint x="1450" y="1284.97" />
            </Array>
          </mxGeometry>
        </mxCell>
        <mxCell id="QnFMCh0aSAJ70zb8AmW7-109" value="Camera (Hardware)" style="rhombus;whiteSpace=wrap;html=1;rounded=0;" vertex="1" parent="1">
          <mxGeometry x="1780" y="1184.97" width="80" height="80" as="geometry" />
        </mxCell>
        <mxCell id="QnFMCh0aSAJ70zb8AmW7-110" value="5. Image Capture module capture image&lt;div&gt;&amp;nbsp;by interacting with the camera&lt;/div&gt;" style="text;html=1;align=center;verticalAlign=middle;resizable=0;points=[];autosize=1;strokeColor=none;fillColor=none;" vertex="1" parent="1">
          <mxGeometry x="1521" y="1184.97" width="240" height="40" as="geometry" />
        </mxCell>
        <mxCell id="QnFMCh0aSAJ70zb8AmW7-111" value="6. Return the image captured" style="text;html=1;align=center;verticalAlign=middle;resizable=0;points=[];autosize=1;strokeColor=none;fillColor=none;" vertex="1" parent="1">
          <mxGeometry x="1540" y="1252.97" width="180" height="30" as="geometry" />
        </mxCell>
        <mxCell id="QnFMCh0aSAJ70zb8AmW7-112" style="edgeStyle=orthogonalEdgeStyle;rounded=0;orthogonalLoop=1;jettySize=auto;html=1;entryX=0.5;entryY=1;entryDx=0;entryDy=0;" edge="1" source="QnFMCh0aSAJ70zb8AmW7-113" target="QnFMCh0aSAJ70zb8AmW7-80" parent="1">
          <mxGeometry relative="1" as="geometry">
            <Array as="points">
              <mxPoint x="580" y="1590" />
              <mxPoint x="580" y="1078" />
            </Array>
          </mxGeometry>
        </mxCell>
        <mxCell id="QnFMCh0aSAJ70zb8AmW7-113" value="Response Manager" style="whiteSpace=wrap;html=1;" vertex="1" parent="1">
          <mxGeometry x="750" y="1560" width="120" height="60" as="geometry" />
        </mxCell>
        <mxCell id="QnFMCh0aSAJ70zb8AmW7-114" value="7. Return the captured image or failure" style="text;html=1;align=center;verticalAlign=middle;resizable=0;points=[];autosize=1;strokeColor=none;fillColor=none;" vertex="1" parent="1">
          <mxGeometry x="890" y="1380" width="230" height="30" as="geometry" />
        </mxCell>
        <mxCell id="QnFMCh0aSAJ70zb8AmW7-115" value="8. return the client with response&lt;div&gt;&amp;nbsp;as present in the in-memory store&amp;nbsp;&lt;/div&gt;" style="text;html=1;align=center;verticalAlign=middle;resizable=0;points=[];autosize=1;strokeColor=none;fillColor=none;" vertex="1" parent="1">
          <mxGeometry x="540" y="1600" width="210" height="40" as="geometry" />
        </mxCell>
        <mxCell id="QnFMCh0aSAJ70zb8AmW7-116" value="In-Memory data store&amp;nbsp;" style="shape=cylinder3;whiteSpace=wrap;html=1;boundedLbl=1;backgroundOutline=1;size=15;" vertex="1" parent="1">
          <mxGeometry x="580" y="858" width="60" height="80" as="geometry" />
        </mxCell>
        <mxCell id="QnFMCh0aSAJ70zb8AmW7-121" value="Client Request" style="swimlane;fontStyle=0;childLayout=stackLayout;horizontal=1;startSize=30;horizontalStack=0;resizeParent=1;resizeParentMax=0;resizeLast=0;collapsible=1;marginBottom=0;whiteSpace=wrap;html=1;" vertex="1" parent="1">
          <mxGeometry x="50" y="858" width="140" height="130" as="geometry" />
        </mxCell>
        <mxCell id="QnFMCh0aSAJ70zb8AmW7-123" value="request headers&lt;div&gt;containing&amp;nbsp;&lt;br&gt;1. priority&lt;br&gt;2. image quality&lt;br&gt;&lt;/div&gt;" style="text;strokeColor=none;fillColor=none;align=left;verticalAlign=middle;spacingLeft=4;spacingRight=4;overflow=hidden;points=[[0,0.5],[1,0.5]];portConstraint=eastwest;rotatable=0;whiteSpace=wrap;html=1;" vertex="1" parent="QnFMCh0aSAJ70zb8AmW7-121">
          <mxGeometry y="30" width="140" height="100" as="geometry" />
        </mxCell>
        <mxCell id="QnFMCh0aSAJ70zb8AmW7-124" value="2a. Camera system stores&lt;div&gt;&amp;nbsp;the client related information&lt;/div&gt;&lt;div&gt;&amp;nbsp;in in-memory datastore&lt;/div&gt;" style="text;html=1;align=center;verticalAlign=middle;resizable=0;points=[];autosize=1;strokeColor=none;fillColor=none;" vertex="1" parent="1">
          <mxGeometry x="600" y="950" width="180" height="60" as="geometry" />
        </mxCell>
        <mxCell id="QnFMCh0aSAJ70zb8AmW7-125" style="edgeStyle=orthogonalEdgeStyle;rounded=0;orthogonalLoop=1;jettySize=auto;html=1;entryX=0.5;entryY=0;entryDx=0;entryDy=0;" edge="1" source="QnFMCh0aSAJ70zb8AmW7-126" target="QnFMCh0aSAJ70zb8AmW7-107" parent="1">
          <mxGeometry relative="1" as="geometry" />
        </mxCell>
        <mxCell id="QnFMCh0aSAJ70zb8AmW7-126" value="Sync Mechanism" style="whiteSpace=wrap;html=1;" vertex="1" parent="1">
          <mxGeometry x="1110" y="1070" width="120" height="60" as="geometry" />
        </mxCell>
        <mxCell id="QnFMCh0aSAJ70zb8AmW7-127" value="4a. Request for lock&amp;nbsp;" style="text;html=1;align=center;verticalAlign=middle;resizable=0;points=[];autosize=1;strokeColor=none;fillColor=none;" vertex="1" parent="1">
          <mxGeometry x="850" y="1218.2" width="130" height="30" as="geometry" />
        </mxCell>
        <mxCell id="QnFMCh0aSAJ70zb8AmW7-128" style="edgeStyle=orthogonalEdgeStyle;rounded=0;orthogonalLoop=1;jettySize=auto;html=1;entryX=0.063;entryY=1.027;entryDx=0;entryDy=0;entryPerimeter=0;" edge="1" source="QnFMCh0aSAJ70zb8AmW7-126" target="QnFMCh0aSAJ70zb8AmW7-127" parent="1">
          <mxGeometry relative="1" as="geometry">
            <Array as="points">
              <mxPoint x="1160" y="1268" />
              <mxPoint x="858" y="1268" />
            </Array>
          </mxGeometry>
        </mxCell>
        <mxCell id="QnFMCh0aSAJ70zb8AmW7-129" value="4c. Provide lock based on priority" style="text;html=1;align=center;verticalAlign=middle;resizable=0;points=[];autosize=1;strokeColor=none;fillColor=none;" vertex="1" parent="1">
          <mxGeometry x="1160" y="1209.97" width="200" height="30" as="geometry" />
        </mxCell>
        <mxCell id="QnFMCh0aSAJ70zb8AmW7-130" value="4c. once acquired lock, request is send to image&amp;nbsp;&lt;div&gt;capture module to capture image&lt;/div&gt;" style="text;html=1;align=center;verticalAlign=middle;resizable=0;points=[];autosize=1;strokeColor=none;fillColor=none;" vertex="1" parent="1">
          <mxGeometry x="1130" y="1300" width="280" height="40" as="geometry" />
        </mxCell>
        <mxCell id="QnFMCh0aSAJ70zb8AmW7-131" value="4b. check for hardware availabiliity" style="text;html=1;align=center;verticalAlign=middle;resizable=0;points=[];autosize=1;strokeColor=none;fillColor=none;" vertex="1" parent="1">
          <mxGeometry x="1230" y="1070" width="210" height="30" as="geometry" />
        </mxCell>
        <mxCell id="QnFMCh0aSAJ70zb8AmW7-132" value="Request Queue" style="swimlane;whiteSpace=wrap;html=1;" vertex="1" parent="1">
          <mxGeometry x="890" y="870" width="200" height="130" as="geometry" />
        </mxCell>
        <mxCell id="QnFMCh0aSAJ70zb8AmW7-137" value="1. Balanced BST to manage&lt;div&gt;&amp;nbsp;the request based on &quot;priority&quot;&lt;/div&gt;" style="text;html=1;align=center;verticalAlign=middle;resizable=0;points=[];autosize=1;strokeColor=none;fillColor=none;" vertex="1" parent="QnFMCh0aSAJ70zb8AmW7-132">
          <mxGeometry x="-10" y="30" width="190" height="40" as="geometry" />
        </mxCell>
        <mxCell id="QnFMCh0aSAJ70zb8AmW7-138" value="2. PriorityBlockingQueue&lt;div&gt;&amp;nbsp;to prevent race condiition&lt;/div&gt;" style="text;html=1;align=center;verticalAlign=middle;resizable=0;points=[];autosize=1;strokeColor=none;fillColor=none;" vertex="1" parent="QnFMCh0aSAJ70zb8AmW7-132">
          <mxGeometry x="-5" y="70" width="160" height="40" as="geometry" />
        </mxCell>
        <mxCell id="QnFMCh0aSAJ70zb8AmW7-133" value="In-Memory DS" style="swimlane;whiteSpace=wrap;html=1;" vertex="1" parent="1">
          <mxGeometry x="437.5" y="710" width="355" height="122" as="geometry" />
        </mxCell>
        <mxCell id="QnFMCh0aSAJ70zb8AmW7-134" value="1. CncorrentHeapMap to store&lt;div&gt;&amp;nbsp;client information&lt;div&gt;&amp;nbsp;and response channel&amp;nbsp;&lt;br&gt;2. Schems: {requestId, ClientId, priority, callback, timestamp}&lt;/div&gt;&lt;/div&gt;" style="text;html=1;align=center;verticalAlign=middle;resizable=0;points=[];autosize=1;strokeColor=none;fillColor=none;" vertex="1" parent="QnFMCh0aSAJ70zb8AmW7-133">
          <mxGeometry x="5" y="26" width="350" height="70" as="geometry" />
        </mxCell>
        <mxCell id="QnFMCh0aSAJ70zb8AmW7-135" value="Use Cases" style="swimlane;whiteSpace=wrap;html=1;" vertex="1" parent="1">
          <mxGeometry x="110" y="1620" width="210" height="200" as="geometry" />
        </mxCell>
        <mxCell id="QnFMCh0aSAJ70zb8AmW7-136" value="1. Real Time Monitoring&lt;div&gt;a. High Priority: Steering Action&lt;br&gt;b. Mid Priority: Logging road situation&lt;br&gt;for later use or processing.&lt;br&gt;&lt;div&gt;2. Camera Action Based&lt;br&gt;on the user request&lt;/div&gt;&lt;/div&gt;&lt;div&gt;a. Low Priority: Checking on the&amp;nbsp;&lt;br&gt;road sides.&lt;/div&gt;" style="text;html=1;align=center;verticalAlign=middle;resizable=0;points=[];autosize=1;strokeColor=none;fillColor=none;" vertex="1" parent="QnFMCh0aSAJ70zb8AmW7-135">
          <mxGeometry x="-10" y="25" width="220" height="130" as="geometry" />
        </mxCell>
        <mxCell id="QnFMCh0aSAJ70zb8AmW7-139" value="Request Processor" style="swimlane;whiteSpace=wrap;html=1;" vertex="1" parent="1">
          <mxGeometry x="610" y="1270" width="160" height="80" as="geometry" />
        </mxCell>
        <mxCell id="QnFMCh0aSAJ70zb8AmW7-140" value="1. Thread Pool to handle&lt;div&gt;&amp;nbsp;request concurrently&lt;/div&gt;" style="text;html=1;align=center;verticalAlign=middle;resizable=0;points=[];autosize=1;strokeColor=none;fillColor=none;" vertex="1" parent="QnFMCh0aSAJ70zb8AmW7-139">
          <mxGeometry x="5" y="30" width="150" height="40" as="geometry" />
        </mxCell>
        <mxCell id="QnFMCh0aSAJ70zb8AmW7-142" value="Sync Manager" style="swimlane;whiteSpace=wrap;html=1;" vertex="1" parent="1">
          <mxGeometry x="1150" y="960" width="200" height="90" as="geometry" />
        </mxCell>
        <mxCell id="QnFMCh0aSAJ70zb8AmW7-143" value="1. Use ReentrantLock&lt;div&gt;&amp;nbsp;to manage lock&lt;div&gt;&amp;nbsp;with concurrency&amp;nbsp;&lt;/div&gt;&lt;/div&gt;" style="text;html=1;align=center;verticalAlign=middle;resizable=0;points=[];autosize=1;strokeColor=none;fillColor=none;" vertex="1" parent="QnFMCh0aSAJ70zb8AmW7-142">
          <mxGeometry x="21" y="20" width="140" height="60" as="geometry" />
        </mxCell>
        <mxCell id="QnFMCh0aSAJ70zb8AmW7-144" value="Image Capture Module" style="swimlane;whiteSpace=wrap;html=1;" vertex="1" parent="1">
          <mxGeometry x="1380" y="1400" width="270" height="90" as="geometry" />
        </mxCell>
        <mxCell id="QnFMCh0aSAJ70zb8AmW7-145" value="1. Request - {clientId, Callback, priority}&lt;div&gt;2. Response - {Image Data, Status}&lt;/div&gt;" style="text;html=1;align=center;verticalAlign=middle;resizable=0;points=[];autosize=1;strokeColor=none;fillColor=none;" vertex="1" parent="QnFMCh0aSAJ70zb8AmW7-144">
          <mxGeometry y="33" width="230" height="40" as="geometry" />
        </mxCell>
        <mxCell id="QnFMCh0aSAJ70zb8AmW7-146" value="Response Manager" style="swimlane;whiteSpace=wrap;html=1;" vertex="1" parent="1">
          <mxGeometry x="750" y="1654" width="240" height="200" as="geometry" />
        </mxCell>
        <mxCell id="QnFMCh0aSAJ70zb8AmW7-147" value="1. Key Responsibility:-&amp;nbsp;&lt;br&gt;a. retrive the response channel&lt;br&gt;based on requestId, ClientId" style="text;html=1;align=center;verticalAlign=middle;resizable=0;points=[];autosize=1;strokeColor=none;fillColor=none;" vertex="1" parent="QnFMCh0aSAJ70zb8AmW7-146">
          <mxGeometry x="-10" y="26" width="190" height="60" as="geometry" />
        </mxCell>
        <mxCell id="QnFMCh0aSAJ70zb8AmW7-148" value="2. Format the response if required" style="text;html=1;align=center;verticalAlign=middle;resizable=0;points=[];autosize=1;strokeColor=none;fillColor=none;" vertex="1" parent="QnFMCh0aSAJ70zb8AmW7-146">
          <mxGeometry y="85" width="200" height="30" as="geometry" />
        </mxCell>
        <mxCell id="QnFMCh0aSAJ70zb8AmW7-149" value="3. Deliver the response back to the client" style="text;html=1;align=center;verticalAlign=middle;resizable=0;points=[];autosize=1;strokeColor=none;fillColor=none;" vertex="1" parent="QnFMCh0aSAJ70zb8AmW7-146">
          <mxGeometry x="-10" y="124" width="240" height="30" as="geometry" />
        </mxCell>
      </root>
    </mxGraphModel>
  </diagram>
</mxfile>
